P3
80 45
255
127 179 255
127 179 255
127 179 255
127 179 255
127 179 255
127 179 255
127 179 255
127 179 255
127 179 255
127 179 255
127 179 255
127 179 255
127 179 255
127 179 255
127 179 255
127 179 255
127 179 255
127 179 255
127 179 255
127 179 255
127 179 255
127 179 255
127 179 255
127 179 255
127 179 255
127 179 255
127 179 255
127 179 255
127 179 255
127 179 255
127 179 255
127 179 255
127 179 255
127 179 255
127 179 255
127 179 255
127 179 255
127 179 255
127 179 255
127 179 255
127 179 255
127 179 255
127 179 255
127 179 255
127 179 255
127 179 255
127 179 255
127 179 255
127 179 255
127 179 255
127 179 255
127 179 255
127 179 255
127 179 255
127 179 255
127 179 255
127 179 255
127 179 255
127 179 255
127 179 255
127 179 255
127 179 255
127 179 255
127 179 255
127 179 255
127 179 255
127 179 255
127 179 255
127 179 255
127 179 255
127 179 255
127 179 255
127 179 255
127 179 255
127 179 255
127 179 255
127 179 255
127 179 255
127 179 255
127 179 255
127 179 255
127 179 255
127 179 255
127 179 255
127 179 255
127 179 255
127 179 255
127 179 255
127 179 255
127 179 255
127 179 255
127 179 255
127 179 255
127 179 255
127 179 255
127 179 255
127 179 255
127 179 255
127 179 255
127 179 255
127 179 255
127 179 255
127 179 255
127 179 255
127 179 255
127 179 255
127 179 255
127 179 255
127 179 255
127 179 255
127 179 255
127 179 255
127 179 255
127 179 255
127 179 255
127 179 255
127 179 255
127 179 255
127 179 255
127 179 255
127 179 255
127 179 255
127 179 255
127 179 255
127 179 255
127 179 255
127 179 255
127 179 255
127 179 255
127 179 255
127 179 255
127 179 255
127 179 255
127 179 255
127 179 255
127 179 255
127 179 255
127 179 255
127 179 255
127 179 255
127 179 255
127 179 255
127 179 255
127 179 255
127 179 255
127 179 255
127 179 255
127 179 255
127 179 255
127 179 255
127 179 255
127 179 255
127 179 255
127 179 255
127 179 255
127 179 255
127 179 255
127 179 255
127 179 255
127 179 255
127 179 255
127 179 255
127 179 255
127 179 255
127 179 255
127 179 255
127 179 255
127 179 255
127 179 255
127 179 255
127 179 255
127 179 255
127 179 255
127 179 255
127 179 255
127 179 255
127 179 255
127 179 255
127 179 255
127 179 255
127 179 255
127 179 255
127 179 255
127 179 255
127 179 255
127 179 255
127 179 255
127 179 255
127 179 255
127 179 255
127 179 255
127 179 255
127 179 255
127 179 255
127 179 255
127 179 255
127 179 255
127 179 255
127 179 255
127 179 255
127 179 255
127 179 255
127 179 255
127 179 255
127 179 255
127 179 255
127 179 255
127 179 255
127 179 255
127 179 255
127 179 255
127 179 255
127 179 255
127 179 255
127 179 255
127 179 255
127 179 255
127 179 255
127 179 255
127 179 255
127 179 255
127 179 255
127 179 255
127 179 255
127 179 255
127 179 255
127 179 255
127 179 255
127 179 255
127 179 255
127 179 255
127 179 255
127 179 255
127 179 255
127 179 255
127 179 255
127 179 255
127 179 255
127 179 255
127 179 255
127 179 255
127 179 255
127 179 255
127 179 255
127 179 255
127 179 255
127 179 255
127 179 255
127 179 255
127 179 255
127 179 255
127 179 255
127 179 255
127 179 255
127 179 255
127 179 255
127 179 255
127 179 255
127 179 255
127 179 255
127 179 255
127 179 255
127 179 255
127 179 255
127 179 255
127 179 255
127 179 255
127 179 255
127 179 255
127 179 255
127 179 255
127 179 255
127 179 255
127 179 255
127 179 255
127 179 255
127 179 255
127 179 255
127 179 255
127 179 255
127 179 255
127 179 255
127 179 255
127 179 255
127 179 255
127 179 255
127 179 255
127 179 255
127 179 255
127 179 255
127 179 255
127 179 255
127 179 255
127 179 255
127 179 255
127 179 255
127 179 255
127 179 255
127 179 255
127 179 255
127 179 255
127 179 255
127 179 255
127 179 255
127 179 255
127 179 255
127 179 255
127 179 255
127 179 255
127 179 255
127 179 255
127 179 255
127 179 255
127 179 255
127 179 255
127 179 255
127 179 255
127 179 255
127 179 255
127 179 255
127 179 255
127 179 255
127 179 255
127 179 255
127 179 255
127 179 255
127 179 255
127 179 255
127 179 255
127 179 255
127 179 255
127 179 255
127 179 255
127 179 255
127 179 255
127 179 255
127 179 255
127 179 255
127 179 255
127 179 255
127 179 255
127 179 255
127 179 255
127 179 255
127 179 255
127 179 255
127 179 255
127 179 255
127 179 255
127 179 255
127 179 255
127 179 255
127 179 255
127 179 255
127 179 255
127 179 255
127 179 255
127 179 255
127 179 255
127 179 255
127 179 255
127 179 255
127 179 255
127 179 255
127 179 255
127 179 255
127 179 255
127 179 255
127 179 255
127 179 255
127 179 255
127 179 255
127 179 255
127 179 255
127 179 255
127 179 255
127 179 255
127 179 255
127 179 255
127 179 255
127 179 255
127 179 255
127 179 255
127 179 255
127 179 255
127 179 255
127 179 255
127 179 255
127 179 255
127 179 255
127 179 255
127 179 255
127 179 255
127 179 255
127 179 255
127 179 255
127 179 255
127 179 255
127 179 255
127 179 255
127 179 255
127 179 255
127 179 255
127 179 255
127 179 255
127 179 255
127 179 255
127 179 255
127 179 255
127 179 255
127 179 255
127 179 255
127 179 255
127 179 255
127 179 255
127 179 255
127 179 255
127 179 255
127 179 255
127 179 255
127 179 255
127 179 255
127 179 255
127 179 255
127 179 255
127 179 255
127 179 255
127 179 255
127 179 255
127 179 255
127 179 255
127 179 255
127 179 255
127 179 255
127 179 255
127 179 255
127 179 255
127 179 255
127 179 255
127 179 255
127 179 255
127 179 255
127 179 255
127 179 255
127 179 255
127 179 255
127 179 255
127 179 255
127 179 255
127 179 255
127 179 255
127 179 255
127 179 255
127 179 255
127 179 255
127 179 255
127 179 255
127 179 255
127 179 255
127 179 255
127 179 255
127 179 255
127 179 255
127 179 255
127 179 255
127 179 255
127 179 255
127 179 255
127 179 255
127 179 255
127 179 255
127 179 255
127 179 255
127 179 255
127 179 255
127 179 255
127 179 255
127 179 255
127 179 255
127 179 255
127 179 255
127 179 255
127 179 255
127 179 255
127 179 255
127 179 255
127 179 255
127 179 255
127 179 255
127 179 255
127 179 255
127 179 255
127 179 255
127 179 255
127 179 255
127 179 255
127 179 255
127 179 255
127 179 255
127 179 255
127 179 255
127 179 255
127 179 255
127 179 255
127 179 255
127 179 255
127 179 255
127 179 255
127 179 255
127 179 255
127 179 255
127 179 255
127 179 255
127 179 255
127 179 255
127 179 255
127 179 255
127 179 255
127 179 255
127 179 255
127 179 255
127 179 255
127 179 255
127 179 255
127 179 255
127 179 255
127 179 255
127 179 255
127 179 255
127 179 255
127 179 255
127 179 255
127 179 255
127 179 255
127 179 255
127 179 255
127 179 255
127 179 255
127 179 255
127 179 255
127 179 255
127 179 255
127 179 255
127 179 255
127 179 255
127 179 255
127 179 255
127 179 255
127 179 255
127 179 255
127 179 255
127 179 255
127 179 255
127 179 255
127 179 255
127 179 255
127 179 255
127 179 255
127 179 255
127 179 255
127 179 255
127 179 255
127 179 255
127 179 255
127 179 255
127 179 255
127 179 255
127 179 255
127 179 255
127 179 255
127 179 255
127 179 255
127 179 255
127 179 255
127 179 255
127 179 255
127 179 255
127 179 255
127 179 255
127 179 255
127 179 255
127 179 255
127 179 255
127 179 255
127 179 255
127 179 255
127 179 255
127 179 255
127 179 255
127 179 255
127 179 255
127 179 255
127 179 255
127 179 255
127 179 255
127 179 255
127 179 255
127 179 255
127 179 255
127 179 255
127 179 255
127 179 255
127 179 255
127 179 255
127 179 255
127 179 255
127 179 255
127 179 255
127 179 255
127 179 255
127 179 255
127 179 255
127 179 255
127 179 255
127 179 255
127 179 255
127 179 255
127 179 255
127 179 255
127 179 255
127 179 255
127 179 255
127 179 255
127 179 255
127 179 255
127 179 255
127 179 255
127 179 255
127 179 255
127 179 255
127 179 255
127 179 255
127 179 255
127 179 255
127 179 255
127 179 255
127 179 255
127 179 255
127 179 255
127 179 255
127 179 255
127 179 255
127 179 255
127 179 255
127 179 255
127 179 255
127 179 255
127 179 255
127 179 255
127 179 255
127 179 255
127 179 255
127 179 255
127 179 255
127 179 255
127 179 255
127 179 255
127 179 255
127 179 255
127 179 255
127 179 255
127 179 255
127 179 255
127 179 255
127 179 255
127 179 255
127 179 255
127 179 255
127 179 255
127 179 255
127 179 255
127 179 255
127 179 255
127 179 255
127 179 255
127 179 255
127 179 255
127 179 255
127 179 255
127 179 255
127 179 255
127 179 255
127 179 255
127 179 255
127 179 255
127 179 255
127 179 255
127 179 255
127 179 255
127 179 255
127 179 255
127 179 255
127 179 255
127 179 255
127 179 255
127 179 255
127 179 255
127 179 255
127 179 255
127 179 255
127 179 255
127 179 255
127 179 255
127 179 255
127 179 255
127 179 255
127 179 255
127 179 255
127 179 255
127 179 255
127 179 255
127 179 255
127 179 255
127 179 255
127 179 255
127 179 255
127 179 255
127 179 255
127 179 255
127 179 255
127 179 255
127 179 255
127 179 255
127 179 255
127 179 255
127 179 255
127 179 255
127 179 255
127 179 255
127 179 255
127 179 255
127 179 255
127 179 255
127 179 255
127 179 255
127 179 255
127 179 255
127 179 255
127 179 255
127 179 255
127 179 255
127 179 255
127 179 255
127 179 255
127 179 255
127 179 255
127 179 255
127 179 255
127 179 255
127 179 255
127 179 255
127 179 255
127 179 255
127 179 255
127 179 255
127 179 255
127 179 255
127 179 255
127 179 255
127 179 255
127 179 255
127 179 255
127 179 255
127 179 255
127 179 255
127 179 255
127 179 255
127 179 255
127 179 255
127 179 255
127 179 255
127 179 255
127 179 255
127 179 255
127 179 255
127 179 255
127 179 255
127 179 255
127 179 255
127 179 255
127 179 255
127 179 255
127 179 255
127 179 255
127 179 255
127 179 255
127 179 255
127 179 255
127 179 255
127 179 255
127 179 255
127 179 255
127 179 255
127 179 255
127 179 255
127 179 255
127 179 255
127 179 255
127 179 255
127 179 255
127 179 255
127 179 255
127 179 255
127 179 255
127 179 255
127 179 255
127 179 255
127 179 255
127 179 255
127 179 255
127 179 255
127 179 255
127 179 255
127 179 255
127 179 255
127 179 255
127 179 255
127 179 255
127 179 255
127 179 255
127 179 255
127 179 255
127 179 255
127 179 255
127 179 255
127 179 255
127 179 255
127 179 255
127 179 255
127 179 255
127 179 255
127 179 255
127 179 255
127 179 255
127 179 255
127 179 255
127 179 255
127 179 255
127 179 255
127 179 255
127 179 255
127 179 255
127 179 255
127 179 255
127 179 255
127 179 255
127 179 255
127 179 255
127 179 255
127 179 255
127 179 255
127 179 255
127 179 255
127 179 255
127 179 255
127 179 255
127 179 255
127 179 255
127 179 255
127 179 255
127 179 255
127 179 255
127 179 255
127 179 255
127 179 255
127 179 255
127 179 255
127 179 255
127 179 255
127 179 255
127 179 255
127 179 255
127 179 255
127 179 255
127 179 255
127 179 255
127 179 255
127 179 255
127 179 255
127 179 255
127 179 255
127 179 255
127 179 255
127 179 255
127 179 255
127 179 255
127 179 255
127 179 255
127 179 255
127 179 255
127 179 255
127 179 255
127 179 255
127 179 255
127 179 255
127 179 255
127 179 255
127 179 255
127 179 255
127 179 255
127 179 255
127 179 255
127 179 255
127 179 255
127 179 255
127 179 255
127 179 255
127 179 255
127 179 255
127 179 255
127 179 255
127 179 255
127 179 255
127 179 255
127 179 255
127 179 255
127 179 255
127 179 255
127 179 255
127 179 255
127 179 255
127 179 255
127 179 255
127 179 255
127 179 255
127 179 255
127 179 255
255 255 0
255 255 0
127 179 255
127 179 255
127 179 255
127 179 255
127 179 255
127 179 255
127 179 255
127 179 255
127 179 255
127 179 255
127 179 255
127 179 255
127 179 255
127 179 255
127 179 255
127 179 255
127 179 255
127 179 255
127 179 255
127 179 255
127 179 255
127 179 255
127 179 255
127 179 255
127 179 255
127 179 255
127 179 255
127 179 255
127 179 255
127 179 255
127 179 255
127 179 255
127 179 255
127 179 255
127 179 255
127 179 255
127 179 255
127 179 255
127 179 255
127 179 255
127 179 255
127 179 255
127 179 255
127 179 255
127 179 255
127 179 255
127 179 255
127 179 255
127 179 255
127 179 255
127 179 255
127 179 255
127 179 255
127 179 255
127 179 255
127 179 255
127 179 255
127 179 255
127 179 255
127 179 255
127 179 255
127 179 255
127 179 255
127 179 255
127 179 255
204 127 76
204 127 76
204 127 76
204 127 76
204 127 76
204 127 76
204 127 76
204 127 76
127 179 255
127 179 255
127 179 255
127 179 255
255 255 0
255 255 0
255 255 0
255 255 0
127 179 255
127 179 255
127 179 255
127 179 255
127 179 255
127 179 255
127 179 255
127 179 255
127 179 255
127 179 255
127 179 255
127 179 255
127 179 255
127 179 255
127 179 255
127 179 255
127 179 255
127 179 255
127 179 255
127 179 255
127 179 255
127 179 255
127 179 255
127 179 255
127 179 255
127 179 255
127 179 255
127 179 255
127 179 255
127 179 255
127 179 255
127 179 255
127 179 255
127 179 255
127 179 255
127 179 255
127 179 255
127 179 255
127 179 255
127 179 255
127 179 255
127 179 255
127 179 255
127 179 255
127 179 255
127 179 255
127 179 255
127 179 255
127 179 255
127 179 255
127 179 255
127 179 255
127 179 255
127 179 255
127 179 255
127 179 255
127 179 255
127 179 255
127 179 255
127 179 255
127 179 255
127 179 255
127 179 255
204 127 76
204 127 76
204 127 76
204 127 76
204 127 76
204 127 76
204 127 76
204 127 76
204 127 76
204 127 76
127 179 255
127 179 255
127 179 255
255 255 0
255 255 0
255 255 0
255 255 0
127 179 255
127 179 255
127 179 255
127 179 255
127 179 255
127 179 255
127 179 255
127 179 255
127 179 255
127 179 255
127 179 255
127 179 255
127 179 255
127 179 255
127 179 255
127 179 255
127 179 255
127 179 255
127 179 255
127 179 255
127 179 255
127 179 255
127 179 255
127 179 255
127 179 255
127 179 255
127 179 255
127 179 255
127 179 255
127 179 255
127 179 255
127 179 255
127 179 255
127 179 255
127 179 255
127 179 255
127 179 255
127 179 255
127 179 255
127 179 255
127 179 255
127 179 255
127 179 255
127 179 255
127 179 255
127 179 255
127 179 255
127 179 255
127 179 255
127 179 255
127 179 255
127 179 255
127 179 255
127 179 255
127 179 255
127 179 255
127 179 255
127 179 255
127 179 255
127 179 255
127 179 255
127 179 255
204 127 76
204 127 76
204 127 76
204 127 76
204 127 76
204 127 76
204 127 76
204 127 76
204 127 76
204 127 76
204 127 76
204 127 76
127 179 255
127 179 255
255 255 0
255 255 0
255 255 0
127 179 255
127 179 255
127 179 255
127 179 255
127 179 255
127 179 255
127 179 255
127 179 255
127 179 255
127 179 255
127 179 255
127 179 255
127 179 255
127 179 255
127 179 255
127 179 255
127 179 255
127 179 255
127 179 255
127 179 255
127 179 255
127 179 255
127 179 255
127 179 255
127 179 255
127 179 255
127 179 255
127 179 255
127 179 255
127 179 255
127 179 255
127 179 255
127 179 255
127 179 255
127 179 255
127 179 255
127 179 255
127 179 255
127 179 255
127 179 255
127 179 255
127 179 255
127 179 255
127 179 255
127 179 255
127 179 255
127 179 255
127 179 255
127 179 255
127 179 255
127 179 255
127 179 255
127 179 255
127 179 255
127 179 255
127 179 255
127 179 255
127 179 255
127 179 255
127 179 255
127 179 255
127 179 255
204 127 76
204 127 76
204 127 76
204 127 76
204 127 76
204 127 76
204 127 76
204 127 76
204 127 76
204 127 76
204 127 76
204 127 76
204 127 76
204 127 76
127 179 255
127 179 255
127 179 255
127 179 255
127 179 255
127 179 255
127 179 255
127 179 255
127 179 255
127 179 255
127 179 255
127 179 255
127 179 255
127 179 255
127 179 255
127 179 255
127 179 255
127 179 255
127 179 255
127 179 255
127 179 255
127 179 255
127 179 255
127 179 255
127 179 255
127 179 255
127 179 255
127 179 255
127 179 255
127 179 255
127 179 255
127 179 255
127 179 255
127 179 255
127 179 255
127 179 255
127 179 255
127 179 255
127 179 255
127 179 255
127 179 255
127 179 255
127 179 255
127 179 255
127 179 255
127 179 255
127 179 255
127 179 255
127 179 255
127 179 255
127 179 255
127 179 255
127 179 255
127 179 255
127 179 255
127 179 255
127 179 255
127 179 255
127 179 255
127 179 255
127 179 255
127 179 255
127 179 255
127 179 255
127 179 255
127 179 255
204 127 76
204 127 76
204 127 76
204 127 76
204 127 76
204 127 76
204 127 76
204 127 76
204 127 76
204 127 76
204 127 76
204 127 76
204 127 76
204 127 76
204 127 76
127 179 255
127 179 255
127 179 255
127 179 255
127 179 255
127 179 255
127 179 255
127 179 255
127 179 255
127 179 255
127 179 255
127 179 255
127 179 255
127 179 255
127 179 255
127 179 255
127 179 255
127 179 255
127 179 255
127 179 255
127 179 255
127 179 255
127 179 255
127 179 255
127 179 255
127 179 255
127 179 255
127 179 255
127 179 255
127 179 255
127 179 255
127 179 255
127 179 255
127 179 255
127 179 255
127 179 255
127 179 255
127 179 255
127 179 255
127 179 255
127 179 255
127 179 255
127 179 255
127 179 255
127 179 255
127 179 255
127 179 255
127 179 255
127 179 255
127 179 255
127 179 255
127 179 255
127 179 255
127 179 255
127 179 255
127 179 255
127 179 255
127 179 255
127 179 255
127 179 255
127 179 255
127 179 255
127 179 255
127 179 255
127 179 255
204 127 76
204 127 76
204 127 76
204 127 76
204 127 76
204 127 76
204 127 76
204 127 76
204 127 76
204 127 76
204 127 76
204 127 76
204 127 76
204 127 76
204 127 76
127 179 255
127 179 255
127 179 255
127 179 255
127 179 255
127 179 255
127 179 255
127 179 255
127 179 255
127 179 255
127 179 255
127 179 255
127 179 255
127 179 255
127 179 255
127 179 255
127 179 255
127 179 255
127 179 255
127 179 255
127 179 255
127 179 255
127 179 255
127 179 255
127 179 255
127 179 255
127 179 255
127 179 255
127 179 255
127 179 255
127 179 255
127 179 255
127 179 255
127 179 255
127 179 255
127 179 255
127 179 255
127 179 255
127 179 255
127 179 255
127 179 255
127 179 255
127 179 255
127 179 255
127 179 255
127 179 255
127 179 255
127 179 255
127 179 255
127 179 255
127 179 255
127 179 255
127 179 255
127 179 255
127 179 255
127 179 255
127 179 255
127 179 255
127 179 255
127 179 255
127 179 255
127 179 255
127 179 255
127 179 255
204 127 76
204 127 76
204 127 76
204 127 76
204 127 76
204 127 76
204 127 76
204 127 76
204 127 76
204 127 76
204 127 76
204 127 76
204 127 76
204 127 76
204 127 76
204 127 76
127 179 255
127 179 255
127 179 255
127 179 255
127 179 255
127 179 255
127 179 255
127 179 255
127 179 255
127 179 255
127 179 255
127 179 255
127 179 255
127 179 255
127 179 255
127 179 255
127 179 255
127 179 255
127 179 255
127 179 255
127 179 255
127 179 255
127 179 255
127 179 255
127 179 255
127 179 255
127 179 255
127 179 255
127 179 255
127 179 255
127 179 255
127 179 255
127 179 255
127 179 255
127 179 255
127 179 255
127 179 255
127 179 255
127 179 255
127 179 255
127 179 255
127 179 255
127 179 255
127 179 255
127 179 255
127 179 255
127 179 255
127 179 255
127 179 255
127 179 255
127 179 255
127 179 255
127 179 255
127 179 255
127 179 255
127 179 255
127 179 255
127 179 255
127 179 255
127 179 255
127 179 255
127 179 255
127 179 255
127 179 255
204 127 76
204 127 76
204 127 76
204 127 76
204 127 76
204 127 76
204 127 76
204 127 76
204 127 76
204 127 76
204 127 76
204 127 76
204 127 76
204 127 76
204 127 76
204 127 76
127 179 255
127 179 255
127 179 255
127 179 255
127 179 255
127 179 255
127 179 255
127 179 255
127 179 255
127 179 255
127 179 255
127 179 255
127 179 255
127 179 255
127 179 255
127 179 255
127 179 255
127 179 255
127 179 255
127 179 255
127 179 255
127 179 255
127 179 255
127 179 255
127 179 255
127 179 255
127 179 255
127 179 255
127 179 255
127 179 255
127 179 255
127 179 255
127 179 255
127 179 255
127 179 255
127 179 255
127 179 255
127 179 255
127 179 255
127 179 255
127 179 255
127 179 255
127 179 255
127 179 255
127 179 255
127 179 255
127 179 255
127 179 255
127 179 255
127 179 255
127 179 255
127 179 255
127 179 255
127 179 255
127 179 255
127 179 255
127 179 255
127 179 255
127 179 255
127 179 255
127 179 255
127 179 255
127 179 255
127 179 255
204 127 76
204 127 76
204 127 76
204 127 76
204 127 76
204 127 76
204 127 76
204 127 76
204 127 76
204 127 76
204 127 76
204 127 76
204 127 76
204 127 76
204 127 76
204 127 76
127 179 255
127 179 255
127 179 255
127 179 255
127 179 255
127 179 255
127 179 255
127 179 255
127 179 255
127 179 255
127 179 255
127 179 255
127 179 255
127 179 255
127 179 255
127 179 255
127 179 255
127 179 255
127 179 255
127 179 255
127 179 255
127 179 255
127 179 255
127 179 255
127 179 255
127 179 255
127 179 255
127 179 255
127 179 255
127 179 255
127 179 255
127 179 255
127 179 255
127 179 255
127 179 255
127 179 255
127 179 255
127 179 255
127 179 255
127 179 255
127 179 255
127 179 255
127 179 255
127 179 255
127 179 255
127 179 255
127 179 255
127 179 255
127 179 255
127 179 255
127 179 255
127 179 255
127 179 255
127 179 255
127 179 255
127 179 255
127 179 255
127 179 255
127 179 255
127 179 255
127 179 255
127 179 255
127 179 255
127 179 255
127 179 255
204 127 76
204 127 76
204 127 76
204 127 76
204 127 76
204 127 76
204 127 76
204 127 76
204 127 76
204 127 76
204 127 76
204 127 76
204 127 76
204 127 76
204 127 76
127 179 255
127 179 255
127 179 255
127 179 255
127 179 255
127 179 255
127 179 255
127 179 255
127 179 255
127 179 255
127 179 255
127 179 255
127 179 255
127 179 255
127 179 255
127 179 255
127 179 255
127 179 255
127 179 255
127 179 255
127 179 255
127 179 255
127 179 255
127 179 255
127 179 255
127 179 255
127 179 255
127 179 255
127 179 255
127 179 255
127 179 255
127 179 255
127 179 255
127 179 255
127 179 255
127 179 255
127 179 255
127 179 255
127 179 255
127 179 255
127 179 255
127 179 255
127 179 255
127 179 255
127 179 255
127 179 255
127 179 255
127 179 255
127 179 255
127 179 255
127 179 255
127 179 255
127 179 255
127 179 255
127 179 255
127 179 255
127 179 255
127 179 255
127 179 255
127 179 255
127 179 255
127 179 255
127 179 255
127 179 255
127 179 255
204 127 76
204 127 76
204 127 76
204 127 76
204 127 76
204 127 76
204 127 76
204 127 76
204 127 76
204 127 76
204 127 76
204 127 76
204 127 76
204 127 76
204 127 76
127 179 255
127 179 255
127 179 255
127 179 255
127 179 255
127 179 255
127 179 255
127 179 255
127 179 255
127 179 255
127 179 255
127 179 255
127 179 255
127 179 255
127 179 255
127 179 255
127 179 255
127 179 255
127 179 255
127 179 255
127 179 255
127 179 255
127 179 255
127 179 255
127 179 255
127 179 255
127 179 255
127 179 255
127 179 255
127 179 255
127 179 255
127 179 255
127 179 255
127 179 255
127 179 255
127 179 255
127 179 255
127 179 255
127 179 255
127 179 255
127 179 255
127 179 255
127 179 255
127 179 255
127 179 255
127 179 255
127 179 255
127 179 255
127 179 255
127 179 255
127 179 255
127 179 255
127 179 255
127 179 255
127 179 255
127 179 255
127 179 255
127 179 255
127 179 255
127 179 255
127 179 255
127 179 255
127 179 255
209 0 0
209 0 0
209 0 0
209 0 0
209 0 0
209 0 0
209 0 0
204 127 76
204 127 76
204 127 76
204 127 76
204 127 76
204 127 76
204 127 76
204 127 76
204 127 76
127 179 255
127 179 255
127 179 255
127 179 255
127 179 255
127 179 255
127 179 255
127 179 255
127 179 255
127 179 255
127 179 255
127 179 255
127 179 255
127 179 255
127 179 255
127 179 255
127 179 255
127 179 255
127 179 255
127 179 255
127 179 255
127 179 255
127 179 255
127 179 255
127 179 255
127 179 255
127 179 255
127 179 255
127 179 255
127 179 255
127 179 255
127 179 255
127 179 255
127 179 255
127 179 255
127 179 255
127 179 255
127 179 255
127 179 255
127 179 255
127 179 255
127 179 255
127 179 255
127 179 255
127 179 255
127 179 255
127 179 255
127 179 255
127 179 255
127 179 255
127 179 255
127 179 255
127 179 255
127 179 255
127 179 255
127 179 255
127 179 255
127 179 255
127 179 255
127 179 255
127 179 255
127 179 255
209 0 0
209 0 0
209 0 0
209 0 0
209 0 0
209 0 0
209 0 0
209 0 0
209 0 0
209 0 0
209 0 0
204 127 76
204 127 76
204 127 76
204 127 76
204 127 76
204 127 76
204 127 76
127 179 255
127 179 255
127 179 255
127 179 255
127 179 255
127 179 255
127 179 255
127 179 255
127 179 255
127 179 255
127 179 255
127 179 255
127 179 255
127 179 255
127 179 255
127 179 255
127 179 255
127 179 255
127 179 255
127 179 255
127 179 255
127 179 255
127 179 255
127 179 255
127 179 255
127 179 255
127 179 255
127 179 255
127 179 255
127 179 255
127 179 255
127 179 255
127 179 255
127 179 255
127 179 255
127 179 255
127 179 255
127 179 255
127 179 255
127 179 255
127 179 255
127 179 255
127 179 255
127 179 255
127 179 255
127 179 255
127 179 255
127 179 255
127 179 255
127 179 255
127 179 255
127 179 255
127 179 255
127 179 255
127 179 255
127 179 255
127 179 255
127 179 255
127 179 255
127 179 255
127 179 255
209 0 0
209 0 0
209 0 0
209 0 0
209 0 0
209 0 0
209 0 0
209 0 0
209 0 0
209 0 0
209 0 0
209 0 0
204 127 76
204 127 76
204 127 76
204 127 76
204 127 76
204 127 76
127 179 255
127 179 255
127 179 255
127 179 255
127 179 255
127 179 255
127 179 255
127 179 255
127 179 255
127 179 255
127 179 255
127 179 255
127 179 255
127 179 255
127 179 255
127 179 255
127 179 255
127 179 255
127 179 255
127 179 255
127 179 255
127 179 255
127 179 255
127 179 255
127 179 255
127 179 255
127 179 255
127 179 255
127 179 255
127 179 255
127 179 255
127 179 255
127 179 255
127 179 255
127 179 255
127 179 255
127 179 255
127 179 255
127 179 255
127 179 255
127 179 255
127 179 255
127 179 255
127 179 255
127 179 255
127 179 255
127 179 255
127 179 255
127 179 255
127 179 255
127 179 255
127 179 255
127 179 255
127 179 255
127 179 255
127 179 255
127 179 255
127 179 255
127 179 255
127 179 255
127 179 255
209 0 0
209 0 0
209 0 0
209 0 0
209 0 0
209 0 0
209 0 0
209 0 0
209 0 0
209 0 0
209 0 0
209 0 0
209 0 0
209 0 0
204 127 76
204 127 76
204 127 76
0 255 107
0 255 107
0 255 107
127 179 255
127 179 255
127 179 255
127 179 255
127 179 255
127 179 255
127 179 255
127 179 255
127 179 255
127 179 255
127 179 255
127 179 255
127 179 255
127 179 255
127 179 255
127 179 255
127 179 255
127 179 255
127 179 255
127 179 255
127 179 255
127 179 255
127 179 255
127 179 255
127 179 255
127 179 255
127 179 255
127 179 255
127 179 255
127 179 255
127 179 255
127 179 255
127 179 255
127 179 255
127 179 255
127 179 255
127 179 255
127 179 255
127 179 255
127 179 255
127 179 255
127 179 255
127 179 255
127 179 255
127 179 255
127 179 255
127 179 255
127 179 255
127 179 255
127 179 255
127 179 255
127 179 255
127 179 255
127 179 255
127 179 255
127 179 255
127 179 255
127 179 255
127 179 255
209 0 0
209 0 0
209 0 0
209 0 0
209 0 0
209 0 0
209 0 0
209 0 0
209 0 0
209 0 0
209 0 0
209 0 0
209 0 0
209 0 0
209 0 0
209 0 0
0 255 107
0 255 107
0 255 107
0 255 107
0 255 107
0 255 107
0 255 107
0 255 107
0 255 107
0 255 107
0 255 107
0 255 107
0 255 107
0 255 107
0 255 107
0 255 107
127 179 255
127 179 255
127 179 255
127 179 255
127 179 255
127 179 255
127 179 255
127 179 255
127 179 255
127 179 255
127 179 255
127 179 255
127 179 255
127 179 255
127 179 255
127 179 255
127 179 255
127 179 255
127 179 255
127 179 255
127 179 255
127 179 255
127 179 255
127 179 255
127 179 255
127 179 255
127 179 255
127 179 255
127 179 255
127 179 255
127 179 255
127 179 255
127 179 255
127 179 255
127 179 255
127 179 255
127 179 255
127 179 255
127 179 255
127 179 255
127 179 255
0 255 107
0 255 107
0 255 107
0 255 107
0 255 107
0 255 107
0 255 107
209 0 0
209 0 0
209 0 0
209 0 0
209 0 0
209 0 0
209 0 0
209 0 0
209 0 0
209 0 0
209 0 0
209 0 0
209 0 0
209 0 0
209 0 0
209 0 0
0 255 107
0 255 107
0 255 107
0 255 107
0 107 255
0 107 255
0 107 255
0 255 107
0 255 107
0 255 107
0 255 107
0 255 107
0 255 107
0 255 107
0 255 107
0 255 107
0 255 107
0 255 107
0 255 107
0 255 107
0 255 107
0 255 107
0 255 107
127 179 255
127 179 255
127 179 255
127 179 255
127 179 255
127 179 255
127 179 255
127 179 255
127 179 255
127 179 255
127 179 255
127 179 255
127 179 255
127 179 255
127 179 255
127 179 255
127 179 255
127 179 255
127 179 255
127 179 255
127 179 255
127 179 255
127 179 255
127 179 255
127 179 255
127 179 255
127 179 255
127 179 255
0 255 107
0 255 107
0 255 107
0 255 107
0 255 107
0 255 107
0 255 107
0 255 107
0 255 107
0 255 107
0 255 107
0 255 107
0 255 107
209 0 0
209 0 0
209 0 0
209 0 0
209 0 0
209 0 0
209 0 0
209 0 0
209 0 0
209 0 0
209 0 0
209 0 0
209 0 0
209 0 0
209 0 0
209 0 0
255 0 107
255 0 107
0 255 107
0 107 255
0 107 255
0 107 255
0 107 255
0 107 255
0 255 107
0 255 107
0 255 107
0 255 107
0 255 107
0 255 107
0 255 107
0 255 107
0 255 107
0 255 107
0 255 107
0 255 107
0 255 107
0 255 107
0 255 107
0 255 107
0 255 107
0 255 107
0 255 107
0 255 107
0 255 107
127 179 255
127 179 255
127 179 255
127 179 255
127 179 255
127 179 255
127 179 255
127 179 255
127 179 255
127 179 255
127 179 255
127 179 255
127 179 255
127 179 255
127 179 255
127 179 255
0 255 107
0 255 107
0 255 107
0 255 107
0 255 107
0 255 107
0 255 107
0 255 107
0 255 107
0 255 107
0 255 107
0 255 107
0 255 107
0 255 107
0 255 107
0 255 107
0 255 107
0 255 107
209 0 0
209 0 0
209 0 0
209 0 0
209 0 0
209 0 0
209 0 0
209 0 0
209 0 0
209 0 0
209 0 0
209 0 0
209 0 0
209 0 0
209 0 0
255 0 107
255 0 107
255 0 107
255 0 107
255 0 107
255 0 107
0 107 255
0 107 255
0 107 255
0 107 255
0 107 255
0 255 107
0 255 107
0 255 107
0 255 107
0 255 107
0 255 107
0 255 107
0 255 107
0 255 107
0 255 107
0 255 107
0 255 107
0 255 107
0 255 107
0 255 107
0 255 107
0 255 107
0 255 107
0 255 107
0 255 107
0 255 107
0 255 107
0 255 107
0 255 107
0 255 107
0 255 107
127 179 255
127 179 255
127 179 255
127 179 255
127 179 255
0 255 107
0 255 107
0 255 107
0 255 107
0 255 107
0 255 107
0 255 107
0 255 107
0 255 107
0 255 107
0 255 107
0 255 107
0 255 107
0 255 107
0 255 107
0 255 107
0 255 107
0 255 107
0 255 107
0 255 107
0 255 107
0 255 107
0 255 107
209 0 0
209 0 0
209 0 0
209 0 0
209 0 0
209 0 0
209 0 0
209 0 0
209 0 0
209 0 0
209 0 0
209 0 0
209 0 0
209 0 0
255 0 107
255 0 107
255 0 107
255 0 107
255 0 107
255 0 107
255 0 107
255 0 107
0 107 255
0 107 255
0 107 255
0 107 255
0 107 255
0 255 107
0 255 107
0 255 107
0 255 107
0 255 107
0 255 107
0 255 107
0 255 107
0 255 107
0 255 107
0 255 107
0 255 107
0 255 107
0 255 107
0 255 107
0 255 107
0 255 107
0 255 107
0 255 107
0 255 107
0 255 107
0 255 107
0 255 107
0 255 107
0 255 107
0 255 107
0 255 107
0 255 107
0 255 107
0 255 107
0 255 107
0 255 107
0 255 107
0 255 107
0 255 107
0 255 107
0 255 107
0 255 107
0 255 107
0 255 107
0 255 107
0 255 107
0 255 107
0 255 107
0 255 107
0 255 107
0 255 107
0 255 107
0 255 107
0 255 107
0 255 107
0 255 107
0 255 107
209 0 0
209 0 0
209 0 0
209 0 0
209 0 0
209 0 0
209 0 0
209 0 0
209 0 0
209 0 0
209 0 0
209 0 0
209 0 0
209 0 0
255 0 107
255 0 107
255 0 107
255 0 107
255 0 107
255 0 107
255 0 107
255 0 107
0 107 255
0 107 255
0 107 255
0 107 255
0 107 255
0 255 107
0 255 107
0 255 107
0 255 107
0 255 107
0 255 107
0 255 107
0 255 107
0 255 107
0 255 107
0 255 107
0 255 107
0 255 107
0 255 107
0 255 107
0 255 107
0 255 107
0 255 107
0 255 107
0 255 107
0 255 107
0 255 107
0 255 107
0 255 107
0 255 107
0 255 107
0 255 107
0 255 107
0 255 107
0 255 107
0 255 107
0 255 107
0 255 107
0 255 107
0 255 107
0 255 107
0 255 107
0 255 107
0 255 107
0 255 107
0 255 107
0 255 107
0 255 107
0 255 107
0 255 107
0 255 107
0 255 107
0 255 107
0 255 107
0 255 107
0 255 107
0 255 107
0 255 107
209 0 0
209 0 0
209 0 0
209 0 0
209 0 0
209 0 0
209 0 0
209 0 0
209 0 0
209 0 0
209 0 0
209 0 0
209 0 0
209 0 0
255 0 107
255 0 107
255 0 107
255 0 107
255 0 107
255 0 107
255 0 107
255 0 107
255 0 107
0 107 255
0 107 255
0 107 255
0 107 255
0 255 107
0 255 107
0 255 107
0 255 107
0 255 107
0 255 107
0 255 107
0 255 107
0 255 107
0 255 107
0 255 107
0 255 107
0 255 107
0 255 107
0 255 107
0 255 107
0 255 107
0 255 107
0 255 107
0 255 107
0 255 107
0 255 107
0 255 107
0 255 107
0 255 107
0 255 107
0 255 107
0 255 107
0 255 107
0 255 107
0 255 107
0 255 107
0 255 107
0 255 107
0 255 107
0 255 107
0 255 107
0 255 107
0 255 107
0 255 107
0 255 107
0 255 107
0 255 107
0 255 107
0 255 107
0 255 107
0 255 107
0 255 107
0 255 107
0 255 107
0 255 107
0 255 107
0 255 107
0 255 107
209 0 0
209 0 0
209 0 0
209 0 0
209 0 0
209 0 0
209 0 0
209 0 0
209 0 0
209 0 0
209 0 0
209 0 0
209 0 0
255 0 107
255 0 107
255 0 107
255 0 107
255 0 107
255 0 107
255 0 107
255 0 107
255 0 107
0 107 255
0 107 255
0 107 255
0 255 107
0 255 107
0 255 107
0 255 107
0 255 107
0 255 107
0 255 107
0 255 107
0 255 107
0 255 107
0 255 107
0 255 107
0 255 107
0 255 107
0 255 107
0 255 107
0 255 107
0 255 107
0 255 107
0 255 107
0 255 107
0 255 107
0 255 107
0 255 107
0 255 107
0 255 107
0 255 107
0 255 107
0 255 107
0 255 107
0 255 107
0 255 107
0 255 107
0 255 107
0 255 107
0 255 107
0 255 107
0 255 107
0 255 107
0 255 107
0 255 107
0 255 107
0 255 107
0 255 107
0 255 107
0 255 107
0 255 107
0 255 107
0 255 107
0 255 107
0 255 107
0 255 107
0 255 107
0 255 107
0 255 107
209 0 0
209 0 0
209 0 0
209 0 0
209 0 0
209 0 0
209 0 0
209 0 0
209 0 0
209 0 0
209 0 0
209 0 0
209 0 0
255 0 107
255 0 107
255 0 107
255 0 107
255 0 107
255 0 107
255 0 107
255 0 107
255 0 107
0 107 255
0 107 255
0 107 255
0 255 107
0 255 107
0 255 107
0 255 107
0 255 107
0 255 107
0 255 107
0 255 107
0 255 107
0 255 107
0 255 107
0 255 107
0 255 107
0 255 107
0 255 107
0 255 107
0 255 107
0 255 107
0 255 107
0 255 107
0 255 107
0 255 107
0 255 107
0 255 107
0 255 107
0 255 107
0 255 107
0 255 107
0 255 107
0 255 107
0 255 107
0 255 107
0 255 107
0 255 107
0 255 107
0 255 107
0 255 107
0 255 107
0 255 107
0 255 107
0 255 107
0 255 107
0 255 107
0 255 107
0 255 107
0 255 107
0 255 107
0 255 107
0 255 107
0 255 107
0 255 107
0 255 107
0 255 107
0 255 107
0 255 107
209 0 0
209 0 0
209 0 0
209 0 0
209 0 0
209 0 0
209 0 0
209 0 0
209 0 0
209 0 0
209 0 0
209 0 0
209 0 0
255 0 107
255 0 107
255 0 107
255 0 107
255 0 107
255 0 107
255 0 107
255 0 107
0 255 107
0 255 107
0 255 107
0 255 107
0 255 107
0 255 107
0 255 107
0 255 107
0 255 107
0 255 107
0 255 107
0 255 107
0 255 107
0 255 107
0 255 107
0 255 107
0 255 107
0 255 107
0 255 107
0 255 107
0 255 107
0 255 107
0 255 107
0 255 107
0 255 107
0 255 107
0 255 107
0 255 107
0 255 107
0 255 107
0 255 107
0 255 107
0 255 107
0 255 107
0 255 107
0 255 107
0 255 107
0 255 107
0 255 107
0 255 107
0 255 107
0 255 107
0 255 107
0 255 107
0 255 107
0 255 107
0 255 107
0 255 107
0 255 107
0 255 107
0 255 107
0 255 107
0 255 107
0 255 107
0 255 107
0 255 107
0 255 107
0 255 107
0 255 107
0 255 107
209 0 0
209 0 0
209 0 0
209 0 0
209 0 0
209 0 0
209 0 0
209 0 0
209 0 0
209 0 0
209 0 0
0 255 107
0 255 107
255 0 107
255 0 107
255 0 107
255 0 107
255 0 107
255 0 107
255 0 107
0 255 107
0 255 107
0 255 107
0 255 107
0 255 107
0 255 107
0 255 107
0 255 107
0 255 107
0 255 107
0 255 107
0 255 107
0 255 107
0 255 107
0 255 107
0 255 107
0 255 107
0 255 107
0 255 107
0 255 107
0 255 107
0 255 107
0 255 107
0 255 107
0 255 107
0 255 107
0 255 107
0 255 107
0 255 107
0 255 107
0 255 107
0 255 107
0 255 107
0 255 107
0 255 107
0 255 107
0 255 107
0 255 107
0 255 107
0 255 107
0 255 107
0 255 107
0 255 107
0 255 107
0 255 107
0 255 107
0 255 107
0 255 107
0 255 107
0 255 107
0 255 107
0 255 107
0 255 107
0 255 107
0 255 107
0 255 107
0 255 107
0 255 107
0 255 107
0 255 107
0 255 107
0 255 107
209 0 0
209 0 0
209 0 0
209 0 0
209 0 0
209 0 0
209 0 0
209 0 0
0 255 107
0 255 107
0 255 107
255 0 107
255 0 107
255 0 107
255 0 107
255 0 107
255 0 107
0 255 107
0 255 107
0 255 107
0 255 107
0 255 107
0 255 107
0 255 107
0 255 107
0 255 107
0 255 107
0 255 107
0 255 107
0 255 107
0 255 107
0 255 107
0 255 107
0 255 107
0 255 107
0 255 107
0 255 107
0 255 107
0 255 107
0 255 107
0 255 107
0 255 107
0 255 107
0 255 107
0 255 107
0 255 107
0 255 107
0 255 107
0 255 107
0 255 107
0 255 107
0 255 107
0 255 107
0 255 107
0 255 107
0 255 107
0 255 107
0 255 107
0 255 107
0 255 107
0 255 107
0 255 107
0 255 107
0 255 107
0 255 107
0 255 107
0 255 107
0 255 107
0 255 107
0 255 107
0 255 107
0 255 107
0 255 107
0 255 107
0 255 107
0 255 107
0 255 107
0 255 107
0 255 107
0 255 107
0 255 107
0 255 107
0 255 107
209 0 0
209 0 0
0 255 107
0 255 107
0 255 107
0 255 107
0 255 107
0 255 107
0 255 107
0 255 107
255 0 107
255 0 107
0 255 107
0 255 107
0 255 107
0 255 107
0 255 107
0 255 107
0 255 107
0 255 107
0 255 107
0 255 107
0 255 107
0 255 107
0 255 107
0 255 107
0 255 107
0 255 107
0 255 107
0 255 107
0 255 107
0 255 107
0 255 107
0 255 107
0 255 107
0 255 107
0 255 107
0 255 107
0 255 107
0 255 107
0 255 107
0 255 107
0 255 107
0 255 107
0 255 107
0 255 107
0 255 107
0 255 107
0 255 107
0 255 107
0 255 107
0 255 107
0 255 107
0 255 107
0 255 107
0 255 107
0 255 107
0 255 107
0 255 107
0 255 107
0 255 107
0 255 107
0 255 107
0 255 107
0 255 107
0 255 107
0 255 107
0 255 107
0 255 107
0 255 107
0 255 107
0 255 107
0 255 107
0 255 107
0 255 107
0 255 107
0 255 107
0 255 107
0 255 107
0 255 107
0 255 107
0 255 107
0 255 107
0 255 107
0 255 107
0 255 107
0 255 107
0 255 107
0 255 107
0 255 107
0 255 107
0 255 107
0 255 107
0 255 107
0 255 107
0 255 107
0 255 107
0 255 107
0 255 107
0 255 107
0 255 107
0 255 107
0 255 107
0 255 107
0 255 107
0 255 107
0 255 107
0 255 107
0 255 107
0 255 107
0 255 107
0 255 107
0 255 107
0 255 107
0 255 107
0 255 107
0 255 107
0 255 107
0 255 107
0 255 107
0 255 107
0 255 107
0 255 107
0 255 107
0 255 107
0 255 107
0 255 107
0 255 107
0 255 107
0 255 107
0 255 107
0 255 107
0 255 107
0 255 107
0 255 107
0 255 107
0 255 107
0 255 107
0 255 107
0 255 107
0 255 107
0 255 107
0 255 107
0 255 107
0 255 107
0 255 107
0 255 107
0 255 107
0 255 107
0 255 107
0 255 107
0 255 107
0 255 107
0 255 107
0 255 107
0 255 107
0 255 107
0 255 107
0 255 107
0 255 107
0 255 107
0 255 107
0 255 107
0 255 107
0 255 107
0 255 107
0 255 107
0 255 107
0 255 107
0 255 107
0 255 107
0 255 107
0 255 107
0 255 107
0 255 107
0 255 107
0 255 107
0 255 107
0 255 107
0 255 107
0 255 107
0 255 107
0 255 107
0 255 107
0 255 107
0 255 107
0 255 107
0 255 107
0 255 107
0 255 107
0 255 107
0 255 107
0 255 107
0 255 107
0 255 107
0 255 107
0 255 107
0 255 107
0 255 107
0 255 107
0 255 107
0 255 107
0 255 107
0 255 107
0 255 107
0 255 107
0 255 107
0 255 107
0 255 107
0 255 107
0 255 107
0 255 107
0 255 107
0 255 107
0 255 107
0 255 107
0 255 107
0 255 107
0 255 107
0 255 107
0 255 107
0 255 107
0 255 107
0 255 107
0 255 107
0 255 107
0 255 107
0 255 107
0 255 107
0 255 107
0 255 107
0 255 107
0 255 107
0 255 107
0 255 107
0 255 107
0 255 107
0 255 107
0 255 107
0 255 107
0 255 107
0 255 107
0 255 107
0 255 107
0 255 107
0 255 107
0 255 107
0 255 107
0 255 107
0 255 107
0 255 107
0 255 107
0 255 107
0 255 107
0 255 107
0 255 107
0 255 107
0 255 107
0 255 107
0 255 107
0 255 107
0 255 107
0 255 107
0 255 107
0 255 107
0 255 107
0 255 107
0 255 107
0 255 107
0 255 107
0 255 107
0 255 107
0 255 107
0 255 107
0 255 107
0 255 107
0 255 107
0 255 107
0 255 107
0 255 107
0 255 107
0 255 107
0 255 107
0 255 107
0 255 107
0 255 107
0 255 107
0 255 107
0 255 107
0 255 107
0 255 107
0 255 107
0 255 107
0 255 107
0 255 107
0 255 107
0 255 107
0 255 107
0 255 107
0 255 107
0 255 107
0 255 107
0 255 107
0 255 107
0 255 107
0 255 107
0 255 107
0 255 107
0 255 107
0 255 107
0 255 107
0 255 107
0 255 107
0 255 107
0 255 107
0 255 107
0 255 107
0 255 107
0 255 107
0 255 107
0 255 107
0 255 107
0 255 107
0 255 107
0 255 107
0 255 107
0 255 107
0 255 107
0 255 107
0 255 107
0 255 107
0 255 107
0 255 107
0 255 107
0 255 107
0 255 107
0 255 107
0 255 107
0 255 107
0 255 107
0 255 107
0 255 107
0 255 107
0 255 107
0 255 107
0 255 107
0 255 107
0 255 107
0 255 107
0 255 107
0 255 107
0 255 107
0 255 107
0 255 107
0 255 107
0 255 107
0 255 107
0 255 107
0 255 107
0 255 107
0 255 107
0 255 107
0 255 107
0 255 107
0 255 107
0 255 107
0 255 107
0 255 107
0 255 107
0 255 107
0 255 107
0 255 107
0 255 107
0 255 107
0 255 107
0 255 107
0 255 107
0 255 107
0 255 107
0 255 107
0 255 107
0 255 107
0 255 107
0 255 107
0 255 107
0 255 107
0 255 107
0 255 107
0 255 107
0 255 107
0 255 107
0 255 107
0 255 107
0 255 107
0 255 107
0 255 107
0 255 107
0 255 107
0 255 107
0 255 107
0 255 107
0 255 107
0 255 107
0 255 107
0 255 107
0 255 107
0 255 107
0 255 107
0 255 107
0 255 107
0 255 107
0 255 107
0 255 107
0 255 107
0 255 107
0 255 107
0 255 107
0 255 107
0 255 107
0 255 107
0 255 107
0 255 107
0 255 107
0 255 107
0 255 107
0 255 107
0 255 107
0 255 107
0 255 107
0 255 107
0 255 107
0 255 107
0 255 107
0 255 107
0 255 107
0 255 107
0 255 107
0 255 107
0 255 107
0 255 107
0 255 107
0 255 107
0 255 107
0 255 107
0 255 107
0 255 107
0 255 107
0 255 107
0 255 107
0 255 107
